PathFileType	4	(X/Y/Z)	Walk9.trc
DataRate	CameraRate	NumFrames	NumMarkers	Units	OrigDataRate	OrigDataStartFrame	OrigNumFrames
200.000000	200.000000	5	59	mm	200.000000	461	523
Frame#	Times		RFHD		RACR1		RUA1		RElbowM		RFA1		RWRU		LACR1		LUA1		LFA1		LWRU		RTH1		LTH2		LFHD		LTB2		RBack		RTH2		LTH4		LASI		CLAV		RTH3		RTB3		LCAR		RTB2		RTB1		LWRR		LTH3		RCAR		C7		RTB4		RElbow		RASI		T10		LBHD		LLFC		RWRR		RBHD		STRN		RPSI		LTB4		LToe		LTB1		LTH1		LElbowM		LElbow		LMMAL		RTH4		LPSI		LCAL		RMT5		LTB3		LMT5		LMT1		RLFC		LLMAL		RMT1		RToe		RCAL		RLMAL		RMMAL
			X1	Y1	Z1	X2	Y2	Z2	X3	Y3	Z3	X4	Y4	Z4	X5	Y5	Z5	X6	Y6	Z6	X7	Y7	Z7	X8	Y8	Z8	X9	Y9	Z9	X10	Y10	Z10	X11	Y11	Z11	X12	Y12	Z12	X13	Y13	Z13	X14	Y14	Z14	X15	Y15	Z15	X16	Y16	Z16	X17	Y17	Z17	X18	Y18	Z18	X19	Y19	Z19	X20	Y20	Z20	X21	Y21	Z21	X22	Y22	Z22	X23	Y23	Z23	X24	Y24	Z24	X25	Y25	Z25	X26	Y26	Z26	X27	Y27	Z27	X28	Y28	Z28	X29	Y29	Z29	X30	Y30	Z30	X31	Y31	Z31	X32	Y32	Z32	X33	Y33	Z33	X34	Y34	Z34	X35	Y35	Z35	X36	Y36	Z36	X37	Y37	Z37	X38	Y38	Z38	X39	Y39	Z39	X40	Y40	Z40	X41	Y41	Z41	X42	Y42	Z42	X43	Y43	Z43	X44	Y44	Z44	X45	Y45	Z45	X46	Y46	Z46	X47	Y47	Z47	X48	Y48	Z48	X49	Y49	Z49	X50	Y50	Z50	X51	Y51	Z51	X52	Y52	Z52	X53	Y53	Z53	X54	Y54	Z54	X55	Y55	Z55	X56	Y56	Z56	X57	Y57	Z57	X58	Y58	Z58	X59	Y59	Z59

461	2.305	560.78	1410.9	39.637	463.34	1209.8	153.22	474.76	1069	234.93	420	905.01	204.27	547.75	838.07	272.98	549.99	737.39	295.78	449.09	1200.3	-213.41	441.31	1038.6	-287.21	428.93	834.68	-350.75	389.6	733.44	-383.44	451.5	630.43	195.54	544.88	588.3	-179.43	568.67	1423.7	-55.9	568.9	217.98	-127.89	345.78	1140.9	96.369	494.21	545.21	156.75	496.52	566.78	-207.37	515.78	808.94	-177.03	535.11	1175.4	-26.823	427.87	463.91	154.36	250.55	151.74	45.759	411.52	676.41	-399.61	274.15	233.03	111.11	370.61	268.65	84.552	441.89	717.83	-351.06	513.83	485.4	-177.69	609.37	698.29	285.4	394.78	1261.3	-25.202	307.2	210.92	64.595	470.07	944.74	273.46	523.41	827.31	146.73	306.65	1062.1	-8.7141	438.79	1350.9	-86.026	554.63	403.21	-140.73	583.73	747.12	232.4	429.21	1341.9	46.46	586.69	1070.1	-25.168	269.46	834.82	44.225	587.88	220.51	-68.893	726.08	31.215	-64.805	588.34	308.02	-74.442	478.1	648.84	-228.16	380.9	899.12	-230.01	398.52	927.58	-298.45	571.5	75.181	-19.784	437.79	547.61	177.26	260.13	833.75	-61.544	508.63	42.964	-52.311	195.97	39.279	81.974	594.24	137.58	-64.924	632.3	19.641	-121.12	677.11	36.147	-39.218	383.33	382.38	134.69	549.82	58.027	-97.291	228.8	38.473	-4.0475	270.23	27.263	31.373	119.23	155.78	15.797	194.99	135.94	-9.7744	167.41	132.79	67.995
462	2.31	566.09	1411.6	38.91	468.53	1211	152.44	479.55	1070	234.16	424.27	906.3	202.86	551.25	838.6	272.23	552.76	737.86	295.16	454.74	1201.1	-214.02	447.67	1039.2	-287.64	436.22	834.86	-350.56	397.74	733.23	-382.98	458.41	630.76	195.48	549.6	588.74	-179.97	574.12	1424.3	-56.629	570.77	217.81	-128.16	350.95	1142	95.827	502.55	546.18	157.02	501.18	567.47	-207.93	521.34	810.13	-177.3	540.36	1176.2	-27.426	437.65	463.72	155.22	257.8	154.01	46.888	420.08	676.22	-398.72	282.4	235.21	111.94	379.84	268.74	86.203	449.97	718.13	-350.26	518.06	486.03	-178.25	611.77	698.06	284.79	400.01	1262	-25.98	315.42	212.19	65.96	474.19	945.72	272.45	528.94	827.78	145.75	311.89	1062.8	-9.1977	444.18	1351.6	-86.832	558.29	403.36	-141.18	586.7	747.29	231.81	434.4	1342.8	45.647	591.84	1071	-26.176	275.01	834.96	44.444	589.59	220.23	-69.106	726.17	30.71	-64.588	590.97	307.74	-74.785	483.16	649.63	-228.69	387.23	899.71	-230.27	405.03	927.89	-298.77	571.65	75.148	-19.76	446.14	547.67	177.6	265.27	834.54	-61.471	508.64	43.054	-52.397	198.96	41.589	81.903	595.13	137.24	-64.975	632.27	19.668	-121.27	677.12	35.729	-39.143	393.76	382.1	135.84	550	58.048	-97.316	232.28	39.759	-3.5804	271.96	27.213	32.227	127.25	161.47	15.621	202.5	139.13	-9.191	174.01	136.74	68.228
463	2.315	571.39	1412.3	38.201	473.66	1212.2	151.7	484.34	1071.1	233.42	428.53	907.61	201.47	554.74	839.16	271.5	555.54	738.36	294.56	460.36	1201.8	-214.59	454.07	1039.7	-288.03	443.61	835.09	-350.32	406.06	733.04	-382.48	465.33	631.1	195.39	554.16	589.07	-180.55	579.56	1424.8	-57.341	572.47	217.63	-128.42	356.09	1143.1	95.307	510.98	547.23	157.29	505.64	568.09	-208.47	526.84	811.33	-177.59	545.57	1177	-27.986	447.62	463.58	156.06	265.37	156.28	48.046	428.85	676.08	-397.79	290.96	237.4	112.78	389.29	268.91	87.811	458.2	718.47	-349.41	522.05	486.58	-178.78	614.14	697.81	284.15	405.19	1262.7	-26.724	323.94	213.51	67.313	478.29	946.73	271.46	534.43	828.28	144.79	317.11	1063.5	-9.664	449.54	1352.4	-87.615	561.72	403.44	-141.62	589.65	747.49	231.23	439.56	1343.7	44.862	596.95	1071.8	-27.146	280.52	835.15	44.636	591.19	219.95	-69.318	726.22	30.369	-64.396	593.44	307.46	-75.122	488.07	650.36	-229.21	393.58	900.33	-230.51	411.58	928.22	-299.06	571.77	75.12	-19.732	454.58	547.74	177.91	270.39	835.37	-61.411	508.63	43.119	-52.466	202.52	44.027	81.934	595.94	136.91	-65.034	632.22	19.733	-121.39	677.09	35.421	-39.076	404.33	381.86	136.95	550.13	58.071	-97.331	236.36	41.201	-2.9861	274.3	27.19	33.256	135.59	166.95	15.545	210.35	142.28	-8.5714	181	140.61	68.525
464	2.32	576.69	1413.1	37.514	478.72	1213.4	150.98	489.13	1072.3	232.73	432.79	908.93	200.12	558.23	839.74	270.8	558.35	738.9	294	465.96	1202.6	-215.12	460.51	1040.3	-288.38	451.1	835.34	-350.05	414.53	732.87	-381.93	472.26	631.46	195.26	558.58	589.29	-181.19	585	1425.4	-58.032	574.02	217.44	-128.67	361.19	1144.2	94.802	519.49	548.35	157.53	509.91	568.64	-209	532.28	812.54	-177.9	550.76	1177.8	-28.503	457.75	463.5	156.86	273.25	158.54	49.208	437.83	675.98	-396.81	299.8	239.57	113.61	398.93	269.16	89.345	466.6	718.86	-348.5	525.8	487.06	-179.3	616.51	697.55	283.48	410.33	1263.4	-27.435	332.73	214.88	68.629	482.37	947.74	270.51	539.89	828.8	143.86	322.32	1064.3	-10.116	454.88	1353.1	-88.375	564.95	403.47	-142.04	592.58	747.71	230.65	444.71	1344.7	44.107	602.03	1072.7	-28.068	286	835.38	44.797	592.68	219.68	-69.537	726.24	30.159	-64.226	595.76	307.17	-75.463	492.85	651.02	-229.73	399.95	900.98	-230.75	418.16	928.58	-299.36	571.88	75.096	-19.704	463.08	547.85	178.17	275.49	836.24	-61.368	508.61	43.164	-52.521	206.73	46.575	82.081	596.68	136.6	-65.11	632.17	19.823	-121.49	677.03	35.205	-39.016	415.01	381.67	137.99	550.21	58.097	-97.338	241.09	42.79	-2.255	277.36	27.204	34.463	144.2	172.16	15.569	218.48	145.35	-7.9283	188.36	144.38	68.882
465	2.325	581.96	1413.8	36.852	483.71	1214.6	150.31	493.9	1073.4	232.09	437.03	910.24	198.8	561.73	840.34	270.13	561.19	739.46	293.48	471.53	1203.3	-215.61	466.98	1041	-288.68	458.68	835.6	-349.74	423.16	732.7	-381.35	479.17	631.86	195.1	562.86	589.4	-181.86	590.42	1426	-58.698	575.43	217.25	-128.92	366.26	1145.2	94.305	528.04	549.54	157.74	513.99	569.12	-209.51	537.66	813.73	-178.22	555.92	1178.7	-28.977	467.99	463.5	157.61	281.43	160.78	50.347	446.99	675.91	-395.8	308.89	241.72	114.42	408.75	269.49	90.778	475.14	719.28	-347.55	529.33	487.46	-179.79	618.87	697.28	282.79	415.44	1264.1	-28.115	341.76	216.27	69.88	486.42	948.74	269.59	545.31	829.33	142.98	327.5	1065	-10.555	460.2	1353.9	-89.109	567.98	403.44	-142.45	595.5	747.95	230.09	449.83	1345.7	43.382	607.08	1073.6	-28.936	291.45	835.65	44.923	594.09	219.4	-69.769	726.25	30.05	-64.079	597.95	306.88	-75.815	497.47	651.62	-230.23	406.34	901.62	-230.99	424.76	928.95	-299.65	571.98	75.074	-19.677	471.63	547.99	178.37	280.59	837.14	-61.344	508.57	43.194	-52.565	211.64	49.208	82.353	597.36	136.29	-65.208	632.11	19.927	-121.57	676.95	35.06	-38.962	425.75	381.55	138.96	550.26	58.125	-97.34	246.52	44.507	-1.3825	281.2	27.266	35.843	153.06	177.05	15.69	226.88	148.32	-7.276	196.1	148.01	69.293
